<svg xmlns="http://www.w3.org/2000/svg" viewBox="31.909 32 55.852 55.852">
  <title>TechNative</title>
  <path d="M68.124,33.25V34.6a3.829,3.829,0,0,1-3.818,3.818A3.829,3.829,0,0,1,60.488,34.6V32.017C60.27,32.017,60.052,32,59.833,32A27.887,27.887,0,0,0,32.125,63.351a3.811,3.811,0,0,1,4.894,3.661v5.2a3.792,3.792,0,0,1-.9,2.452A27.9,27.9,0,0,0,59.84,87.852c.735,0,1.462-.037,2.182-.094V84.529a3.82,3.82,0,0,1,7.636,0v1.542A27.926,27.926,0,0,0,68.13,33.25Zm9.818,37.805a3.31,3.31,0,0,1-2.784-1.527A17.964,17.964,0,0,1,42,59.926a3.582,3.582,0,0,1-3.571-3.571V51.491a3.569,3.569,0,0,1,6.707-1.706,17.967,17.967,0,0,1,32.8,10.141,3.321,3.321,0,0,1,3.31,3.312v4.507A3.321,3.321,0,0,1,77.942,71.055Z" fill="#112f41"/>
</svg>
