<svg xmlns="http://www.w3.org/2000/svg" width="255.298" height="55.852" viewBox="0 0 255.298 55.852">
  <g id="TechNative_logo_colour_RGB" transform="translate(-31.909 -32)">
    <path id="Path_1" data-name="Path 1" d="M68.124,33.25V34.6a3.829,3.829,0,0,1-3.818,3.818h0A3.829,3.829,0,0,1,60.488,34.6V32.017c-.218,0-.436-.017-.655-.017A27.887,27.887,0,0,0,32.125,63.351a3.811,3.811,0,0,1,4.894,3.661v5.2a3.792,3.792,0,0,1-.9,2.452A27.9,27.9,0,0,0,59.84,87.852c.735,0,1.462-.037,2.182-.094V84.529a3.82,3.82,0,0,1,7.636,0v1.542A27.926,27.926,0,0,0,68.13,33.25Zm9.818,37.805h0a3.31,3.31,0,0,1-2.784-1.527A17.964,17.964,0,0,1,42,59.926a3.582,3.582,0,0,1-3.571-3.571V51.491a3.569,3.569,0,0,1,6.707-1.706,17.967,17.967,0,0,1,32.8,10.141,3.321,3.321,0,0,1,3.31,3.312v4.507a3.321,3.321,0,0,1-3.31,3.308Z" transform="translate(0 0)" fill="#112f41"/>
    <path id="Path_2" data-name="Path 2" d="M179.97,157.89Z" transform="translate(-115.758 -98.424)" fill="#112f41"/>
    <path id="Path_3" data-name="Path 3" d="M186.39,202.07h0v0Z" transform="translate(-120.777 -132.965)" fill="#112f41"/>
    <path id="Path_4" data-name="Path 4" d="M122.172,158.672v0h0Z" transform="translate(-70.568 -99.034)" fill="#112f41"/>
    <path id="Path_5" data-name="Path 5" d="M133.47,202.072v0h0Z" transform="translate(-79.403 -132.965)" fill="#112f41"/>
    <path id="Path_6" data-name="Path 6" d="M339.188,104.49v6.853h-3.956l-.218-2.878h-4.728v18.121l2.756.53v3.092H322.373v-3.092l2.756-.53V108.465h-4.717l-.218,2.878H316.26V104.49Z" transform="translate(-222.313 -56.675)" fill="#112f41"/>
    <path id="Path_7" data-name="Path 7" d="M431.808,152.986a8.609,8.609,0,0,1-6.606-2.649,9.462,9.462,0,0,1-2.472-6.731V142.9a10.458,10.458,0,0,1,2.341-7.012,8.725,8.725,0,0,1,12.285-.406,8.963,8.963,0,0,1,2.136,6.305v2.81h-11.41l-.035.1a4.979,4.979,0,0,0,1.263,3.109,3.951,3.951,0,0,0,3.054,1.22,9.952,9.952,0,0,0,2.836-.345,13,13,0,0,0,2.472-1.091l1.4,3.179A10.1,10.1,0,0,1,436,152.347,13.069,13.069,0,0,1,431.808,152.986Zm-.458-15.861a2.688,2.688,0,0,0-2.262,1.091,5.706,5.706,0,0,0-1.023,2.88l.052.087h6.327v-.458a4.13,4.13,0,0,0-.77-2.618A2.767,2.767,0,0,0,431.35,137.125Z" transform="translate(-305.554 -79.081)" fill="#112f41"/>
    <path id="Path_8" data-name="Path 8" d="M519.93,149.026a3.034,3.034,0,0,0,2.208-.805,2.836,2.836,0,0,0,.831-2.145h4.662l.055.1a5.959,5.959,0,0,1-2.182,4.85,9.191,9.191,0,0,1-12.172-.753,10.285,10.285,0,0,1-2.313-6.94v-.53a10.17,10.17,0,0,1,2.376-6.942,8.5,8.5,0,0,1,6.763-2.721,11.744,11.744,0,0,1,4.145.689,8.18,8.18,0,0,1,3.055,1.944l.072,5.1H523.27l-.849-2.985a3.212,3.212,0,0,0-.953-.556,3.55,3.55,0,0,0-1.289-.218,3.269,3.269,0,0,0-3.091,1.588,8.125,8.125,0,0,0-.9,4.1v.53a8.794,8.794,0,0,0,.831,4.123A3.01,3.01,0,0,0,519.93,149.026Z" transform="translate(-374.582 -79.077)" fill="#112f41"/>
    <path id="Path_9" data-name="Path 9" d="M595.846,120.534l2.489-.53V99.713l-2.756-.53V96.07h7.9v10.88a6.522,6.522,0,0,1,2.208-2.057,6.392,6.392,0,0,1,7.606,1.255q1.7,1.988,1.7,6.137V120l2.474.53v3.092H607.61v-3.092l2.225-.53V112.25a4.914,4.914,0,0,0-.785-3.153,2.9,2.9,0,0,0-2.341-.927,4.263,4.263,0,0,0-1.881.388,3.75,3.75,0,0,0-1.353,1.091V120l2.232.535v3.092h-9.861Z" transform="translate(-440.693 -50.092)" fill="#112f41"/>
    <path id="Path_10" data-name="Path 10" d="M729.223,104.49V107.6l-2.756.53v22.079h-5.14L710.94,112.892l-.1.017V126.58l2.756.53V130.2H702.94v-3.085l2.738-.53V108.129l-2.738-.53V104.49h7.9l10.385,17.31.107-.017V108.129l-2.755-.53V104.49Z" transform="translate(-524.63 -56.675)" fill="#112f41"/>
    <path id="Path_11" data-name="Path 11" d="M844.455,152.652a9.739,9.739,0,0,1-.371-.98,7.574,7.574,0,0,1-.247-1.017,7.112,7.112,0,0,1-2.234,1.715,6.709,6.709,0,0,1-3.013.655,6.31,6.31,0,0,1-4.459-1.527,5.391,5.391,0,0,1-1.652-4.163,4.717,4.717,0,0,1,2.156-4.145,11.313,11.313,0,0,1,6.327-1.466h2.627v-1.872a2.822,2.822,0,0,0-.794-2.138,3.275,3.275,0,0,0-2.348-.764,5.562,5.562,0,0,0-1.571.2,4.035,4.035,0,0,0-1.113.487l-.338,2.06H833.54l.017-4.239a14.451,14.451,0,0,1,3.242-1.608,11.727,11.727,0,0,1,3.982-.655,9.051,9.051,0,0,1,5.768,1.745,5.94,5.94,0,0,1,2.217,4.955v8.7a6.134,6.134,0,0,0,.061.742l1.573.218v3.092Zm-4.468-3.443a4.459,4.459,0,0,0,2.118-.5,4.071,4.071,0,0,0,1.484-1.263v-2.915h-2.631a3.59,3.59,0,0,0-2.489.768,2.4,2.4,0,0,0-.849,1.846,1.911,1.911,0,0,0,.626,1.527A2.583,2.583,0,0,0,839.987,149.21Z" transform="translate(-625.908 -79.119)" fill="#112f41"/>
    <path id="Path_12" data-name="Path 12" d="M922.6,113.31v4.682h3.356v3.622H922.6v9.737a2.248,2.248,0,0,0,.458,1.588,1.634,1.634,0,0,0,1.237.478,8.778,8.778,0,0,0,.927-.044,8.465,8.465,0,0,0,.892-.151l.436,3.726a12.511,12.511,0,0,1-1.713.4,12.071,12.071,0,0,1-1.837.131,5.5,5.5,0,0,1-4.108-1.466,6.42,6.42,0,0,1-1.438-4.645v-9.755H914.65v-3.622h2.81V113.31Z" transform="translate(-690.151 -63.57)" fill="#112f41"/>
    <rect id="Rectangle_2" data-name="Rectangle 2" width="5.158" height="3.868" transform="translate(240.662 45.978)" fill="#112f41"/>
    <path id="Path_13" data-name="Path 13" d="M984.015,150.26V134.77H976.1v3.109l2.756.53V150.26l-2.489.53v3.092h10.121V150.79Z" transform="translate(-738.194 -80.348)" fill="#112f41"/>
    <path id="Path_14" data-name="Path 14" d="M1037.562,137.875l-1.8.336,2.533,8.552.334,1.8h.107l.371-1.8,2.489-8.531-1.837-.353V134.77h8.675v3.1l-1.66.264-5.642,15.743H1036.2l-5.653-15.739-1.66-.264V134.77h8.672Z" transform="translate(-779.467 -80.348)" fill="#112f41"/>
    <path id="Path_15" data-name="Path 15" d="M1134.318,152.986a8.609,8.609,0,0,1-6.606-2.649,9.462,9.462,0,0,1-2.472-6.731V142.9a10.457,10.457,0,0,1,2.341-7.012,8.725,8.725,0,0,1,12.285-.406,8.963,8.963,0,0,1,2.136,6.305v2.81h-11.41l-.035.1a4.978,4.978,0,0,0,1.263,3.109,3.95,3.95,0,0,0,3.054,1.22,9.95,9.95,0,0,0,2.836-.345,13,13,0,0,0,2.472-1.091l1.4,3.179a10.1,10.1,0,0,1-3.065,1.573A13.069,13.069,0,0,1,1134.318,152.986Zm-.458-15.861a2.686,2.686,0,0,0-2.263,1.091,5.687,5.687,0,0,0-1.023,2.88l.052.087h6.327v-.458a4.13,4.13,0,0,0-.768-2.618A2.774,2.774,0,0,0,1133.86,137.125Z" transform="translate(-854.796 -79.081)" fill="#112f41"/>
    <path id="Path_16" data-name="Path 16" d="M135.811,112v5.581H132.6l-.172-2.343h-3.866v14.757l2.245.436v2.513h-8.679v-2.518l2.245-.436V115.238H120.52l-.172,2.343H117.14V112Z" transform="translate(-66.636 -62.546)" fill="#112f41"/>
  </g>
</svg>
